<svg width="293" height="115" viewBox="0 0 293 115" fill="none" xmlns="http://www.w3.org/2000/svg">
<g clip-path="url(#clip0_1_24)">
<path d="M20.6993 29.5541C20.2728 28.8627 19.5897 28.7083 18.6533 29.0876C17.7169 29.4669 16.6539 29.9972 15.4576 30.6853C14.5613 31.2693 13.5749 31.8063 12.5052 32.2964C11.4356 32.7864 10.3459 33.0449 9.23959 33.0751C8.13328 33.1053 6.98031 32.7361 5.78735 31.9674C4.59106 31.1988 3.38477 29.8294 2.16182 27.8557C0.958868 25.9157 0.26242 24.1905 0.0691479 22.6767C-0.124125 21.1629 0.0691479 19.8472 0.658962 18.7261C1.24544 17.605 2.05519 16.6384 3.08487 15.8295C3.90794 15.1984 4.72435 14.7386 5.53409 14.4432C6.34051 14.1479 7.14026 13.9498 7.93334 13.8491C8.72642 13.7484 9.50284 13.6578 10.2626 13.5772C11.0224 13.4967 11.7521 13.3691 12.4519 13.1879C13.1517 13.01 13.8381 12.7012 14.5113 12.2615C15.3443 11.7178 16.0241 10.9625 16.5506 9.99923C17.0771 9.03257 17.587 7.98534 18.0801 6.85756C18.5733 5.72978 19.1731 4.64564 19.8796 3.60848C20.586 2.57133 21.5524 1.69864 22.782 0.990422C24.6248 -0.0265931 26.2942 -0.258191 27.7838 0.292273C29.2733 0.846094 30.5995 2.05779 31.7592 3.93406C32.6556 5.38071 33.0788 6.75351 33.0288 8.05583C32.9788 9.35814 32.5289 10.5027 31.6825 11.4929C30.8328 12.483 29.7065 13.2416 28.2969 13.7652C26.8907 14.2888 25.2845 14.5171 23.4851 14.4432C21.6124 14.3257 20.0062 14.4936 18.67 14.9501C17.3337 15.4065 16.5206 16.2222 16.2374 17.4003C15.9541 18.5784 16.434 20.1694 17.6769 22.1732C18.7766 23.9488 19.9029 25.0262 21.0592 25.4022C22.2155 25.7781 23.3085 25.4928 24.3415 24.5429C25.3745 23.593 26.2309 21.9987 26.9107 19.7532C27.5038 18.1656 28.3103 16.8364 29.3266 15.7556C30.3463 14.6748 31.4726 13.9532 32.7089 13.5873C33.9452 13.2215 35.1781 13.3054 36.411 13.8424C37.6407 14.3794 38.767 15.467 39.7866 17.1116C40.8063 18.7563 41.2895 20.2634 41.2395 21.6362C41.1895 23.009 40.7397 24.1871 39.8899 25.1806C39.0402 26.1708 37.9239 26.9126 36.5377 27.3993C35.1514 27.886 33.6319 28.0672 31.9824 27.943C29.7132 27.6208 27.9337 27.7282 26.6474 28.2686C25.3612 28.8056 24.6414 29.7018 24.4948 30.9504C24.3448 32.199 24.8114 33.696 25.891 35.438C27.154 37.4754 28.3636 38.6133 29.5232 38.8516C30.6828 39.0899 31.7458 38.6838 32.7189 37.6365C33.6886 36.5893 34.5216 35.1695 35.2114 33.3805C35.8912 31.6452 36.7609 30.2355 37.8239 29.1514C38.8836 28.0672 40.0366 27.3523 41.2828 26.9998C42.5291 26.6508 43.7321 26.7213 44.8884 27.2113C46.048 27.7013 47.0844 28.6882 48.0007 30.1684C49.1404 32.0111 49.6402 33.7397 49.4936 35.3575C49.347 36.9753 48.4339 38.4253 46.7511 39.7041C45.6048 40.5433 44.4285 41.077 43.2222 41.3085C42.0159 41.5401 40.803 41.6375 39.59 41.6006C38.3738 41.5636 37.2308 41.5905 36.1678 41.6845C35.1015 41.7785 34.1518 42.0973 33.3187 42.6411C32.6456 43.0808 32.0824 43.5842 31.6259 44.1582C31.1727 44.7322 30.7462 45.3531 30.3529 46.0244C29.9597 46.6957 29.5432 47.3704 29.1067 48.0484C28.6701 48.723 28.1503 49.3742 27.5472 49.9985C26.944 50.6228 26.1976 51.2001 25.3112 51.7304C24.1616 52.3413 22.9586 52.6736 21.709 52.7273C20.4594 52.781 19.2131 52.4017 17.9702 51.5962C16.7272 50.7906 15.4976 49.401 14.2747 47.4274C13.0717 45.4874 12.3819 43.789 12.202 42.339C12.0221 40.8856 12.182 39.6538 12.6785 38.6368C13.175 37.6231 13.8748 36.737 14.7812 35.9852C15.6876 35.2333 16.5706 34.5318 17.427 33.8806C18.56 33.0952 19.493 32.3501 20.2261 31.6419C20.9559 30.9336 21.1092 30.2355 20.6827 29.5441L20.6993 29.5541Z" fill="#DD2E17"/>
<path d="M59.6878 40.4994C61.3573 42.1474 62.4103 43.8492 62.8435 45.6046C63.28 47.36 62.7868 49.1323 61.3706 50.9213C60.4242 51.9853 59.5079 52.7204 58.6315 53.1231C57.7518 53.5259 56.882 53.7776 56.0256 53.875C55.1659 53.9757 54.3295 54.0529 53.5131 54.1099C52.6934 54.167 51.8703 54.3415 51.0439 54.6336C50.2175 54.9256 49.4077 55.4928 48.618 56.3353C47.8016 57.2046 47.2617 58.0773 46.9952 58.95C46.7286 59.8227 46.582 60.6786 46.5586 61.5211C46.532 62.3602 46.4886 63.2228 46.4253 64.1056C46.362 64.9883 46.1488 65.8879 45.7889 66.8042C45.429 67.7205 44.7359 68.6704 43.7062 69.6538C42.6232 70.6944 41.5069 71.2817 40.3539 71.4126C39.2009 71.5469 38.068 71.3321 36.9583 70.7749C35.8453 70.2177 34.729 69.3853 33.6094 68.2777C32.4864 67.17 31.6333 66.0557 31.0502 64.938C30.4637 63.8203 30.2205 62.6757 30.3204 61.5009C30.4204 60.3295 30.9402 59.1547 31.8866 57.98C32.8063 56.8891 33.6994 56.1339 34.5657 55.7177C35.4321 55.3015 36.2919 55.043 37.1516 54.9424C38.008 54.8417 38.8544 54.7712 39.6875 54.7275C40.5205 54.6839 41.3469 54.5026 42.1767 54.1838C43.0031 53.8649 43.8262 53.2708 44.6426 52.4015C45.4323 51.559 45.9621 50.7165 46.2287 49.8707C46.4953 49.0249 46.6386 48.1824 46.6653 47.3399C46.6886 46.5008 46.7286 45.6315 46.7786 44.7353C46.8285 43.8391 47.0418 42.9395 47.415 42.0367C47.7882 41.1338 48.4747 40.1772 49.4777 39.1669C51.1672 37.6464 52.8766 37.0758 54.6028 37.455C56.3289 37.8343 58.025 38.848 59.6945 40.496L59.6878 40.4994Z" fill="#DD2E17"/>
<path d="M70.9675 95.774C68.9282 94.4885 67.4187 93.1593 66.4356 91.7831C65.4526 90.4103 65.0061 88.8697 65.0927 87.1646C65.1794 85.4595 65.7259 83.506 66.7322 81.3042C67.8885 78.5586 68.7982 76.2393 69.4647 74.3495C70.1278 72.4598 70.5943 70.9024 70.8642 69.674C71.1308 68.4488 71.2108 67.4788 71.1008 66.7706C70.9909 66.0624 70.7243 65.5723 70.3044 65.3072C69.9479 65.0823 69.6046 65.0051 69.2747 65.0689C68.9449 65.136 68.615 65.3139 68.2817 65.6093C67.9485 65.9013 67.5553 66.4316 67.0954 67.1935C66.6789 67.8917 66.379 68.6872 66.1991 69.58C66.0191 70.4728 65.8791 71.4126 65.7792 72.4028C65.6759 73.3896 65.5526 74.4335 65.4093 75.531C65.2627 76.6286 65.0294 77.7262 64.7062 78.8237C64.383 79.9213 63.8998 81.0021 63.2633 82.0661C62.3269 83.6269 61.2839 84.6808 60.1276 85.2313C58.9713 85.7817 57.7217 85.9328 56.3788 85.6811C55.0359 85.4293 53.603 84.8218 52.0835 83.8652C50.3041 82.7441 48.9378 81.5828 47.9815 80.3879C47.0251 79.193 46.5053 77.9041 46.4186 76.5212C46.332 75.1417 46.6752 73.6212 47.4483 71.9597C47.9515 71.0434 48.478 70.2211 49.0278 69.4927C49.5743 68.7644 50.1741 68.0998 50.8239 67.5023C51.4704 66.9049 52.1435 66.2873 52.8366 65.6495C53.5297 65.0118 54.2395 64.3304 54.9693 63.5987C55.6957 62.867 56.4521 61.9977 57.2385 60.984C57.9383 60.1885 58.5681 59.4333 59.1346 58.715C59.6978 57.9967 60.2243 57.3221 60.7141 56.6944C61.2006 56.0668 61.6738 55.4458 62.127 54.8416C62.5802 54.2341 63.06 53.6937 63.5699 53.2137C64.0797 52.7338 64.6162 52.284 65.1827 51.8644C66.0291 51.1193 66.8422 50.6595 67.6153 50.4849C68.3884 50.3104 69.2481 50.3842 70.1911 50.7031C71.1342 51.0253 72.1738 51.5422 73.3068 52.2571C74.4731 52.9922 75.3962 53.7004 76.0793 54.3818C76.7624 55.0632 77.2589 55.8016 77.5655 56.587C77.872 57.3758 78.0187 58.2451 78.0053 59.1984C77.992 60.1482 77.8754 61.219 77.6521 62.4072C77.4522 63.3336 77.3455 64.1794 77.3322 64.948C77.3155 65.7167 77.3789 66.3947 77.5155 66.9854C77.6521 67.5762 77.8654 68.1098 78.1586 68.5898C78.4485 69.0698 78.8051 69.4424 79.2249 69.7075C79.9047 70.1372 80.5245 70.2546 81.0877 70.06C81.6508 69.8653 82.194 69.4793 82.7205 68.8953C83.0104 68.4858 83.247 68.1065 83.4303 67.7675C83.6136 67.4251 83.7868 67.0794 83.9535 66.727C84.1201 66.3745 84.2567 66.0389 84.36 65.7133C84.4633 65.3911 84.6066 65.0588 84.7899 64.7164C84.9731 64.3741 85.1831 64.0049 85.423 63.6054C86.1894 62.6253 86.9625 62.1319 87.7489 62.1252C88.532 62.1185 89.3951 62.4105 90.3348 63.0013C91.4344 63.6961 92.1809 64.4983 92.5707 65.4079C92.9606 66.3175 93.0373 67.5661 92.8007 69.1537C92.6241 69.8183 92.4241 70.5064 92.2009 71.2112C91.9776 71.9161 91.7243 72.6008 91.4378 73.2654C91.1512 73.93 90.848 74.6416 90.5247 75.4001C90.2048 76.1587 89.8449 76.9609 89.4484 77.8067C89.0518 78.6526 88.6653 79.5756 88.2888 80.5758C87.8322 81.707 87.4424 82.7844 87.1158 83.8148C86.7892 84.8419 86.4893 85.8086 86.2161 86.7115C85.9428 87.6144 85.6563 88.4837 85.353 89.3228C85.0498 90.162 84.7032 90.9809 84.31 91.7865C83.9168 92.5921 83.4403 93.3875 82.8771 94.1763C81.7908 95.6867 80.6478 96.7373 79.4482 97.3281C78.2453 97.9188 76.949 98.0732 75.5594 97.7913C74.1665 97.506 72.6304 96.8347 70.9509 95.774H70.9675Z" fill="#DD2E17"/>
<path d="M98.7857 107.646C96.0965 106.807 93.8905 105.948 92.1677 105.065C90.445 104.182 89.1454 103.239 88.2723 102.232C87.3992 101.228 86.8461 100.148 86.6095 98.9963C86.3762 97.845 86.3896 96.6166 86.6561 95.3176C86.9461 94.0656 87.3692 92.9043 87.9257 91.8369C88.4789 90.7695 89.0854 89.766 89.7385 88.8295C90.3916 87.893 90.9981 86.9834 91.5579 86.1007C92.1178 85.2179 92.5543 84.3754 92.8709 83.5799C93.1841 82.6603 93.394 81.7775 93.504 80.9384C93.614 80.0993 93.7006 79.24 93.7606 78.3606C93.8206 77.4846 93.9305 76.5817 94.0871 75.6519C94.2438 74.7222 94.5537 73.7421 95.0202 72.7049C95.5234 71.6812 96.0998 70.8723 96.7496 70.2815C97.3994 69.6908 98.2592 69.3082 99.3222 69.1303C100.388 68.9524 101.705 68.9893 103.281 69.2343C104.854 69.4793 106.77 69.956 109.022 70.6575C111.822 71.5301 114.061 72.3391 115.747 73.0876C117.43 73.8361 118.683 74.6047 119.502 75.3868C120.322 76.1722 120.805 76.9844 120.955 77.8236C121.102 78.6627 121.022 79.6059 120.715 80.6497C120.539 81.2472 120.272 81.8144 119.912 82.3548C119.552 82.8952 119.086 83.2678 118.509 83.4759C117.933 83.684 117.207 83.6504 116.337 83.3786C115.32 83.0597 114.427 82.6838 113.668 82.2407C112.905 81.801 112.121 81.3613 111.318 80.9283C110.515 80.4953 109.422 80.0623 108.039 79.6327C107.24 79.3843 106.47 79.2366 105.73 79.1863C104.99 79.1393 104.364 79.2702 103.857 79.579C103.348 79.8878 102.974 80.4551 102.731 81.274C102.531 81.9453 102.574 82.6099 102.854 83.2678C103.134 83.9257 103.767 84.4056 104.747 84.7111C105.654 84.993 106.507 85.1676 107.303 85.2313C108.096 85.2951 108.876 85.3153 109.639 85.2884C110.402 85.2616 111.175 85.2884 111.965 85.3723C112.755 85.4562 113.584 85.6341 114.457 85.906C115.694 86.292 116.49 86.8458 116.853 87.5675C117.213 88.2891 117.197 89.3229 116.8 90.6655C116.49 91.7094 115.977 92.4746 115.257 92.9647C114.537 93.4547 113.558 93.5051 112.325 93.1191C111.635 92.9043 110.962 92.5619 110.305 92.092C109.649 91.6221 108.989 91.1119 108.319 90.5581C107.65 90.0043 106.95 89.4807 106.223 88.9906C105.494 88.5006 104.714 88.1246 103.877 87.8628C102.861 87.544 102.078 87.5675 101.535 87.9266C100.992 88.2857 100.615 88.8228 100.405 89.5277C100.152 90.3869 100.175 91.1052 100.478 91.6892C100.782 92.2733 101.275 92.7834 101.961 93.2198C102.644 93.6561 103.404 94.0052 104.241 94.267C105.367 94.6194 106.36 94.8477 107.223 94.9517C108.086 95.0591 108.972 95.1733 109.889 95.2941C110.805 95.4183 111.862 95.6633 113.061 96.0392C114.114 96.3682 114.887 96.875 115.38 97.5564C115.874 98.2411 116.14 99.0769 116.184 100.067C116.227 101.057 116.06 102.188 115.687 103.454C115.234 104.981 114.624 106.236 113.858 107.22C113.091 108.203 112.081 108.864 110.829 109.207C109.576 109.549 107.963 109.596 105.993 109.348C104.021 109.099 101.618 108.535 98.7857 107.653V107.646Z" fill="#DD2E17"/>
<path d="M147.151 97.2743C148.1 97.2407 148.88 96.7171 149.493 95.7001C150.106 94.6831 150.469 93.4043 150.589 91.8603C150.709 90.3163 150.456 88.7354 149.833 87.1209C149.247 85.5434 148.847 84.0867 148.63 82.7508C148.413 81.4149 148.537 80.2301 148.997 79.1996C149.456 78.1692 150.389 77.3468 151.792 76.7326C153.195 76.1183 155.228 75.7626 157.884 75.6686C160.046 75.5914 161.839 75.7256 163.255 76.0646C164.672 76.4036 165.758 77.0179 166.511 77.9074C167.261 78.7968 167.741 79.9985 167.944 81.5122C168.021 82.7172 167.904 83.7544 167.594 84.6237C167.281 85.493 166.881 86.2852 166.391 87.0034C165.901 87.7217 165.415 88.4333 164.925 89.1315C164.435 89.8296 164.025 90.605 163.692 91.4542C163.359 92.3033 163.212 93.3338 163.255 94.5388C163.295 95.7471 163.512 96.7708 163.902 97.6133C164.292 98.4558 164.755 99.2211 165.288 99.9024C165.825 100.584 166.361 101.269 166.898 101.95C167.434 102.631 167.877 103.397 168.227 104.242C168.577 105.088 168.774 106.115 168.814 107.32C168.7 109.586 167.977 111.247 166.644 112.308C165.311 113.369 163.639 113.936 161.629 114.006C160.223 114.057 159.003 113.876 157.964 113.463C156.924 113.053 156.131 112.389 155.588 111.472C155.045 110.556 154.768 109.378 154.758 107.935C154.681 106.766 154.781 105.81 155.061 105.058C155.341 104.31 155.708 103.642 156.164 103.061C156.621 102.48 157.074 101.91 157.531 101.346C157.987 100.785 158.364 100.117 158.66 99.3486C158.957 98.5766 159.087 97.6301 159.05 96.499C159 95.059 158.897 93.8943 158.734 93.0015C158.57 92.112 158.34 91.4575 158.04 91.038C157.741 90.6217 157.344 90.4204 156.851 90.4371C156.204 90.4606 155.578 90.7728 154.971 91.3803C154.365 91.9878 153.848 92.7632 153.425 93.7164C153.002 94.6663 152.665 95.7035 152.419 96.8212C152.172 97.9389 152.086 99.0465 152.159 100.134C152.152 101.03 152.236 101.886 152.416 102.698C152.595 103.511 152.782 104.313 152.982 105.105C153.179 105.897 153.295 106.78 153.329 107.753C153.375 109.116 153.175 110.254 152.732 111.163C152.286 112.076 151.636 112.761 150.776 113.221C149.916 113.681 148.88 113.933 147.667 113.973C146.451 114.016 145.401 113.839 144.515 113.443C143.628 113.046 142.942 112.409 142.455 111.526C141.969 110.647 141.702 109.525 141.659 108.163C141.626 107.189 141.682 106.3 141.826 105.498C141.969 104.696 142.102 103.88 142.229 103.058C142.352 102.235 142.402 101.376 142.369 100.48C142.332 99.3889 142.152 98.2947 141.832 97.1938C141.509 96.0928 141.086 95.0859 140.563 94.1696C140.039 93.2532 139.47 92.5115 138.863 91.9509C138.253 91.387 137.647 91.1185 137.04 91.1386C136.547 91.1554 136.154 91.3837 135.867 91.8234C135.577 92.2631 135.391 92.931 135.308 93.8305C135.224 94.7301 135.204 95.9015 135.254 97.3414C135.291 98.4726 135.484 99.409 135.834 100.158C136.181 100.906 136.594 101.544 137.067 102.074C137.54 102.604 138.013 103.141 138.49 103.689C138.963 104.239 139.376 104.877 139.723 105.605C140.069 106.333 140.263 107.28 140.303 108.448C140.353 109.888 140.126 111.086 139.626 112.04C139.126 112.993 138.39 113.711 137.417 114.194C136.444 114.678 135.258 114.943 133.851 114.993C131.802 115.067 130.076 114.621 128.676 113.657C127.277 112.694 126.46 111.086 126.234 108.834C126.117 107.629 126.207 106.595 126.5 105.726C126.794 104.86 127.187 104.064 127.673 103.346C128.163 102.628 128.66 101.906 129.169 101.188C129.676 100.47 130.106 99.6742 130.459 98.8049C130.809 97.9355 130.966 96.8984 130.926 95.69C130.886 94.4851 130.659 93.468 130.252 92.6457C129.846 91.8234 129.363 91.0782 128.81 90.417C128.253 89.7558 127.71 89.0811 127.173 88.3997C126.637 87.7184 126.194 86.9531 125.844 86.1073C125.491 85.2614 125.334 84.2343 125.371 83.026C125.434 81.5055 125.801 80.2737 126.474 79.3339C127.143 78.394 128.186 77.706 129.596 77.2663C131.006 76.8266 132.795 76.5681 134.958 76.4909C137.577 76.3969 139.606 76.6084 141.049 77.1219C142.492 77.6355 143.485 78.3907 144.031 79.3842C144.578 80.3777 144.798 81.5491 144.691 82.8985C144.585 84.2478 144.275 85.7313 143.758 87.3458C143.282 89.0006 143.145 90.5915 143.348 92.1255C143.552 93.6594 144.001 94.908 144.701 95.878C145.398 96.848 146.221 97.3146 147.171 97.281L147.151 97.2743Z" fill="#DD2E17"/>
<path d="M180.723 72.3692C183.009 71.6375 185.048 71.2515 186.845 71.2078C188.641 71.1642 190.22 71.4562 191.586 72.0805C192.949 72.7048 194.149 73.6379 195.182 74.8798C196.215 76.1217 197.148 77.659 197.984 79.4916C198.821 81.3276 199.587 83.459 200.287 85.8858C201.283 89.0375 201.943 91.8536 202.26 94.3441C202.58 96.8346 202.456 99.0163 201.89 100.889C201.327 102.762 200.234 104.377 198.618 105.729C197.001 107.082 194.759 108.216 191.893 109.133C189.101 110.026 186.681 110.378 184.639 110.197C182.593 110.016 180.836 109.311 179.374 108.086C177.907 106.86 176.608 105.145 175.481 102.933C174.352 100.725 173.309 98.0396 172.346 94.8778C171.613 92.4611 171.08 90.2525 170.753 88.2554C170.423 86.2583 170.34 84.4391 170.496 82.7978C170.653 81.1565 171.11 79.683 171.869 78.3807C172.626 77.0783 173.729 75.9304 175.178 74.9369C176.628 73.9434 178.474 73.0875 180.723 72.3692ZM187.828 95.7438C191.053 94.7133 193.299 93.5553 194.562 92.2765C195.825 90.9977 196.178 89.4436 195.625 87.6211C195.105 85.9126 193.956 84.9124 192.176 84.6237C190.397 84.3351 187.931 84.6942 184.775 85.7045C181.73 86.6779 179.544 87.8057 178.224 89.0845C176.901 90.3633 176.501 91.8603 177.021 93.5687C177.564 95.3544 178.73 96.4083 180.52 96.7339C182.309 97.0595 184.745 96.7306 187.828 95.7438Z" fill="#DD2E17"/>
<path d="M223.819 97.516C220.48 99.6843 217.618 100.654 215.232 100.426C212.846 100.201 210.747 98.8754 208.937 96.4554C208.378 95.6196 207.904 94.8208 207.524 94.0555C207.141 93.2902 206.801 92.4846 206.505 91.6388C206.208 90.793 205.928 89.9606 205.668 89.1382C205.408 88.3159 205.132 87.4465 204.835 86.5336C204.542 85.6173 204.182 84.6741 203.762 83.7041C203.346 82.5931 202.906 81.5526 202.443 80.5825C201.98 79.6159 201.556 78.6559 201.173 77.706C200.79 76.7561 200.447 75.8734 200.143 75.0544C199.84 74.2354 199.594 73.3829 199.404 72.49C199.144 70.9058 199.224 69.6337 199.644 68.6704C200.06 67.707 200.8 66.8847 201.86 66.1966C203.143 65.3642 204.369 64.9816 205.538 65.0554C206.705 65.1259 207.778 65.6999 208.754 66.7706C209.144 67.2573 209.471 67.7138 209.734 68.14C209.997 68.5697 210.237 69.0127 210.454 69.4692C210.67 69.929 210.877 70.3587 211.08 70.7581C211.28 71.1575 211.503 71.5334 211.74 71.8859C211.98 72.2383 212.276 72.5538 212.626 72.8324C213.346 73.5641 214.126 73.8628 214.969 73.7319C215.809 73.601 216.758 73.1915 217.818 72.5035C218.621 71.9832 219.234 71.4462 219.657 70.8957C220.081 70.3452 220.327 69.7814 220.4 69.204C220.474 68.6267 220.44 68.083 220.304 67.5728C220.147 67.029 219.961 66.5289 219.747 66.0691C219.531 65.6092 219.257 65.1662 218.924 64.7365C218.591 64.3069 218.284 63.8504 218.008 63.3604C217.728 62.8737 217.468 62.3602 217.228 61.8265C216.682 60.4302 216.555 59.1514 216.852 57.99C217.148 56.8287 217.905 55.8553 219.124 55.0632C220.31 54.2912 221.38 53.932 222.333 53.9824C223.286 54.0327 224.396 54.5026 225.659 55.3854C226.309 55.9325 226.958 56.5266 227.601 57.1677C228.245 57.8121 228.881 58.5271 229.504 59.3225C230.127 60.118 230.787 60.9471 231.477 61.8097C232.167 62.6757 232.92 63.5819 233.73 64.5318C234.446 65.4045 235.189 66.2235 235.956 66.9921C236.722 67.7641 237.485 68.4891 238.245 69.1705C239.005 69.8552 239.744 70.5466 240.474 71.2515C241.201 71.9564 241.874 72.6847 242.493 73.4332C243.113 74.1851 243.686 75.0578 244.21 76.0546C245.266 78.1357 245.606 79.9784 245.226 81.5828C244.846 83.1905 243.58 84.6909 241.43 86.0872C239.634 87.2552 238.042 87.7688 236.652 87.6312C235.262 87.4935 234.003 86.5067 232.863 84.6607C232.233 83.6403 231.704 82.5092 231.274 81.2673C230.844 80.0254 230.464 78.864 230.137 77.7866C229.811 76.7091 229.411 75.7928 228.944 75.0343C228.458 74.2455 227.985 73.7689 227.525 73.6044C227.065 73.4433 226.595 73.5171 226.112 73.8293C225.565 74.1851 225.259 74.7053 225.192 75.3968C225.122 76.0882 225.342 77.028 225.852 78.2162C226.195 78.9177 226.612 79.7401 227.105 80.6866C227.598 81.6331 228.105 82.8146 228.618 84.2344C229.404 86.1677 229.764 87.9165 229.697 89.4806C229.628 91.0447 229.104 92.4712 228.121 93.7534C227.138 95.0356 225.699 96.2942 223.806 97.5227L223.819 97.516Z" fill="#DD2E17"/>
<path d="M250.694 49.1188C251.384 49.7868 252.141 50.2433 252.967 50.4816C253.794 50.7199 254.657 50.8743 255.56 50.9448C256.463 51.0152 257.399 51.1193 258.369 51.2569C259.338 51.3945 260.315 51.6698 261.294 52.0826C262.274 52.4955 263.244 53.1701 264.21 54.1066C265.203 55.0699 265.876 56.0433 266.223 57.0267C266.573 58.0102 266.653 59.0406 266.466 60.118C266.28 61.1988 265.86 62.2796 265.203 63.3571C264.547 64.4379 263.67 65.5723 262.574 66.7605C261.531 67.8917 260.491 68.8181 259.465 69.5364C258.435 70.2547 257.409 70.7447 256.383 71.0099C255.356 71.275 254.347 71.2616 253.36 70.9729C252.371 70.6843 251.381 70.0566 250.388 69.0933C249.422 68.1568 248.718 67.1935 248.275 66.1967C247.832 65.2031 247.515 64.213 247.329 63.2262C247.142 62.2394 246.992 61.2794 246.889 60.3463C246.782 59.4132 246.586 58.5371 246.293 57.7182C246.003 56.8992 245.513 56.1574 244.823 55.4861C244.077 54.7644 243.413 54.308 242.83 54.1166C242.247 53.9287 241.757 53.9186 241.357 54.0965C240.958 54.2744 240.591 54.5463 240.251 54.9121C239.885 55.3082 239.575 55.7177 239.318 56.1373C239.061 56.5568 238.828 56.9629 238.625 57.3557C238.422 57.7484 238.175 58.0974 237.889 58.4096C237.445 58.8896 236.909 59.148 236.276 59.1782C235.646 59.2118 234.983 59.0238 234.286 58.6143C233.59 58.2082 232.897 57.6678 232.207 56.9999C231.077 55.9023 230.248 54.8181 229.721 53.7441C229.195 52.67 229.058 51.5187 229.305 50.2835C229.554 49.0517 230.188 47.642 231.204 46.0544C232.224 44.4701 233.683 42.6442 235.589 40.5766C237.549 38.4553 239.271 36.8274 240.758 35.6962C242.244 34.5651 243.583 33.8401 244.77 33.5145C245.956 33.1923 247.089 33.2695 248.162 33.7495C249.238 34.2294 250.338 35.0182 251.471 36.1158C252.161 36.7837 252.717 37.4718 253.14 38.1767C253.564 38.8815 253.79 39.5428 253.82 40.1637C253.85 40.7847 253.63 41.3486 253.16 41.8554C252.874 42.1675 252.544 42.4394 252.174 42.6677C251.804 42.8993 251.428 43.151 251.044 43.4229C250.664 43.6947 250.275 44.0438 249.885 44.4701C249.518 44.8662 249.262 45.2723 249.112 45.6919C248.962 46.1081 249.002 46.6048 249.232 47.1754C249.462 47.7494 249.948 48.3938 250.694 49.1188Z" fill="#DD2E17"/>
<path d="M280.438 30.8797C274.554 27.5434 274.43 21.9548 271.781 20.4545C270.505 19.7328 269.382 20.2766 267.213 24.2976C265.043 28.3221 265.167 29.6378 266.44 30.3594C269.089 31.8598 273.767 29.0001 279.652 32.3364C284.311 34.978 284.654 38.8514 281.998 43.7787C279.422 48.555 276.16 50.448 271.098 47.84C265.526 44.8763 265.253 39.7979 259.952 36.3306C255.876 33.5582 252.954 33.2796 250.435 31.0643C248.555 29.2082 248.552 27.4359 249.661 25.3717C250.908 23.0591 252.527 22.0723 254.673 22.9618C256.759 24.0795 256.873 26.2444 259.062 27.2916C260.641 27.926 261.631 27.634 264.317 22.653C266.976 17.7256 266.716 16.6583 265.353 15.6245C263.3 14.3289 261.451 15.3828 259.445 14.1107C257.569 12.7178 257.549 10.7374 258.742 8.5255C259.882 6.41427 261.348 5.4711 263.88 6.12225C267.023 7.1829 268.835 9.52238 273.291 11.59C278.972 14.3524 283.311 11.8887 288.693 15.2049C293.538 18.2157 293.734 22.0052 291.158 26.7814C288.529 31.6584 285.09 33.5179 280.435 30.8763L280.438 30.8797Z" fill="#DD2E17"/>
</g>
<defs>
<clipPath id="clip0_1_24">
<rect width="292.801" height="115" fill="white"/>
</clipPath>
</defs>
</svg>
